<svg width="23" height="28" viewBox="0 0 23 28" fill="none" xmlns="http://www.w3.org/2000/svg">
<g clip-path="url(#clip0_5_610)">
<path d="M11.3591 13.5058C13.1631 13.5058 14.7251 12.8649 16.0015 11.6005C17.2778 10.3364 17.9248 8.78956 17.9248 7.00256C17.9248 5.21619 17.2778 3.66917 16.0013 2.40458C14.7247 1.1406 13.1629 0.499756 11.3591 0.499756C9.55497 0.499756 7.99331 1.1406 6.71699 2.40479C5.44066 3.66897 4.79346 5.21598 4.79346 7.00256C4.79346 8.78956 5.44066 10.3366 6.71719 11.6008C7.99372 12.8647 9.55559 13.5058 11.3591 13.5058Z" fill="#CFCFCF"/>
<path d="M22.8472 21.2613C22.8104 20.7352 22.736 20.1613 22.6264 19.5553C22.5157 18.9447 22.3733 18.3675 22.2027 17.84C22.0266 17.2947 21.787 16.7563 21.4909 16.2403C21.1835 15.7047 20.8224 15.2383 20.4173 14.8545C19.9937 14.4531 19.475 14.1303 18.8752 13.8948C18.2775 13.6606 17.6151 13.542 16.9066 13.542C16.6283 13.542 16.3592 13.655 15.8395 13.9902C15.5196 14.1968 15.1455 14.4358 14.7279 14.7C14.3708 14.9254 13.887 15.1365 13.2895 15.3277C12.7066 15.5145 12.1147 15.6093 11.5305 15.6093C10.9463 15.6093 10.3546 15.5145 9.77108 15.3277C9.1742 15.1368 8.69046 14.9256 8.33379 14.7003C7.92013 14.4384 7.54579 14.1995 7.22114 13.99C6.70205 13.6548 6.43273 13.5417 6.15446 13.5417C5.4457 13.5417 4.78352 13.6606 4.18602 13.895C3.58665 14.1301 3.06776 14.4529 2.64371 14.8547C2.23879 15.2387 1.87754 15.7049 1.57058 16.2403C1.27464 16.7563 1.03505 17.2945 0.858694 17.8402C0.688366 18.3677 0.545906 18.9447 0.435265 19.5553C0.325665 20.1605 0.251211 20.7346 0.2144 21.2619C0.178214 21.7786 0.159912 22.3148 0.159912 22.8563C0.159912 24.2657 0.612249 25.4067 1.50424 26.2482C2.3852 27.0786 3.55088 27.4998 4.96841 27.4998H18.0939C19.5114 27.4998 20.6766 27.0788 21.5578 26.2482C22.45 25.4073 22.9024 24.2661 22.9024 22.8561C22.9021 22.3121 22.8836 21.7755 22.8472 21.2613Z" fill="#CFCFCF"/>
</g>
<defs>
<clipPath id="clip0_5_610">
<rect width="23" height="27" fill="white" transform="translate(0 0.5)"/>
</clipPath>
</defs>
</svg>
