<svg width="160" height="33" viewBox="0 0 160 33" fill="none" xmlns="http://www.w3.org/2000/svg">
<path fill-rule="evenodd" clip-rule="evenodd" d="M23 11.7248C23 18.1977 11.5 33 11.5 33C11.5 33 0 18.1977 0 11.7248C0 5.2519 5.15121 0 11.5 0C17.8488 0 23 5.2519 23 11.7248ZM20.7689 11.7248C20.7689 6.50633 16.6184 2.27471 11.5 2.27471C6.3816 2.27471 2.2311 6.50633 2.2311 11.7248C2.2311 16.9432 6.3816 21.1749 11.5 21.1749C16.6184 21.1749 20.7689 16.9432 20.7689 11.7248Z" fill="white"/>
<path d="M20.1291 12.1429L12.632 11.9255C12.6101 12.0259 12.5827 12.1206 12.5499 12.2098L18.8987 16.2742C19.6205 15.0699 20.0471 13.6483 20.1291 12.1429Z" fill="white"/>
<path d="M12.5664 11.3066C12.5992 11.3958 12.6211 11.4906 12.632 11.591L20.1292 11.8084C20.1292 11.7861 20.1292 11.7582 20.1292 11.7248C20.1292 10.2362 19.7683 8.84794 19.1449 7.62696L12.5664 11.3066Z" fill="white"/>
<path d="M12.2218 10.8216C12.2984 10.8773 12.364 10.9442 12.4187 11.0223L18.9807 7.3259C18.2589 6.07147 17.2418 5.00102 16.0278 4.23163L12.2218 10.8216Z" fill="white"/>
<path d="M4.13415 7.14192C3.47794 8.2291 3.05141 9.46681 2.92017 10.7881L10.3845 11.4572C10.4064 11.3791 10.4283 11.3066 10.4501 11.2397L4.13415 7.14192Z" fill="white"/>
<path d="M10.8273 20.5058L11.2703 12.8789C11.1828 12.8566 11.0953 12.8231 11.0078 12.7785L6.82446 19.1176C7.98923 19.887 9.36726 20.3887 10.8273 20.5058Z" fill="white"/>
<path d="M11.9921 2.94373L11.7133 10.5707C11.7898 10.593 11.8664 10.6153 11.9429 10.6376L15.7489 4.06436C14.6334 3.41206 13.3538 3.01064 11.9921 2.94373Z" fill="white"/>
<path d="M11.1391 10.6209C11.2157 10.5986 11.2977 10.5819 11.3852 10.5707L11.6641 2.92702C11.6094 2.92702 11.5547 2.92702 11.5 2.92702C10.1548 2.92702 8.8916 3.24481 7.75964 3.79676L11.1391 10.6209Z" fill="white"/>
<path d="M12.3693 12.4774C12.3147 12.5555 12.249 12.6224 12.1725 12.6782L15.6012 19.4688C16.8644 18.7831 17.9307 17.7795 18.7181 16.5585L12.3693 12.4774Z" fill="white"/>
<path d="M11.8773 12.8287C11.7898 12.8621 11.6969 12.8844 11.5985 12.8956L11.1555 20.5225C11.2758 20.5225 11.3907 20.5225 11.5 20.5225C12.8617 20.5225 14.1577 20.2048 15.306 19.6361L11.8773 12.8287Z" fill="white"/>
<path d="M10.6307 10.9721C10.6963 10.8941 10.7674 10.8272 10.8439 10.7714L7.46449 3.94729C6.18488 4.63305 5.10214 5.6366 4.3147 6.85758L10.6307 10.9721Z" fill="white"/>
<path d="M10.4172 12.076C10.3844 11.9868 10.3625 11.892 10.3516 11.7917L2.88725 11.1227C2.87632 11.3234 2.87085 11.5241 2.87085 11.7248C2.87085 13.0294 3.14974 14.2671 3.64189 15.371L10.4172 12.076Z" fill="white"/>
<path d="M10.729 12.5945C10.6634 12.5276 10.6033 12.4551 10.5486 12.3771L3.78967 15.6721C4.42947 16.9767 5.38097 18.0973 6.54574 18.9336L10.729 12.5945Z" fill="white"/>
<path d="M36.3851 23V9.56377H42.1819C43.679 9.56377 44.8371 9.86449 45.6561 10.4659C46.4879 11.0673 46.9037 11.9183 46.9037 13.0188C46.9037 13.7482 46.731 14.3624 46.3855 14.8615C46.0528 15.3605 45.5921 15.738 45.0035 15.994C44.4276 16.2499 43.7942 16.3779 43.1032 16.3779L43.4295 15.9172C44.2869 15.9172 45.0227 16.0515 45.6369 16.3203C46.2639 16.5762 46.7502 16.9665 47.0957 17.4911C47.4412 18.003 47.6139 18.6428 47.6139 19.4106C47.6139 20.5495 47.1917 21.4324 46.3471 22.0595C45.5153 22.6865 44.2549 23 42.5658 23H36.3851ZM37.8055 21.8291H42.5466C43.7238 21.8291 44.626 21.6308 45.253 21.2341C45.88 20.8246 46.1935 20.1784 46.1935 19.2954C46.1935 18.4253 45.88 17.7919 45.253 17.3952C44.626 16.9857 43.7238 16.7809 42.5466 16.7809H37.6519V15.6101H42.0859C43.1608 15.6101 43.9926 15.4053 44.5812 14.9958C45.1826 14.5864 45.4833 13.9785 45.4833 13.1724C45.4833 12.3534 45.1826 11.7456 44.5812 11.3489C43.9926 10.9394 43.1608 10.7346 42.0859 10.7346H37.8055V21.8291ZM50.856 23V9.56377H52.2764V23H50.856ZM57.8766 19.6601L57.819 17.9326L65.9575 9.56377H67.5891L61.6579 15.7828L60.8518 16.6466L57.8766 19.6601ZM56.6481 23V9.56377H58.0686V23H56.6481ZM66.303 23L60.5063 16.3203L61.466 15.2838L67.9922 23H66.303ZM71.5612 15.5717H78.6632V16.7809H71.5612V15.5717ZM71.7147 21.7715H79.7957V23H70.2943V9.56377H79.5077V10.7922H71.7147V21.7715ZM85.999 23L81.469 9.56377H82.9278L87.1698 22.213H86.4404L90.8168 9.56377H92.122L96.4408 22.213H95.7498L100.03 9.56377H101.393L96.8631 23H95.3659L91.2391 11.0034H91.623L87.4769 23H85.999ZM109.758 23.1152C108.748 23.1152 107.807 22.9488 106.937 22.6161C106.079 22.2706 105.331 21.7907 104.691 21.1765C104.064 20.5495 103.571 19.8265 103.213 19.0075C102.868 18.1758 102.695 17.2672 102.695 16.2819C102.695 15.2966 102.868 14.3944 103.213 13.5754C103.571 12.7437 104.064 12.0207 104.691 11.4065C105.331 10.7794 106.079 10.2996 106.937 9.96686C107.794 9.62135 108.735 9.4486 109.758 9.4486C110.769 9.4486 111.703 9.62135 112.561 9.96686C113.418 10.2996 114.16 10.773 114.787 11.3873C115.427 12.0015 115.92 12.7245 116.265 13.5563C116.624 14.388 116.803 15.2966 116.803 16.2819C116.803 17.2672 116.624 18.1758 116.265 19.0075C115.92 19.8393 115.427 20.5623 114.787 21.1765C114.16 21.7907 113.418 22.2706 112.561 22.6161C111.703 22.9488 110.769 23.1152 109.758 23.1152ZM109.758 21.8483C110.565 21.8483 111.307 21.714 111.985 21.4452C112.676 21.1637 113.271 20.7734 113.77 20.2744C114.282 19.7625 114.679 19.1739 114.96 18.5085C115.242 17.8303 115.382 17.0881 115.382 16.2819C115.382 15.4757 115.242 14.7399 114.96 14.0745C114.679 13.3963 114.282 12.8077 113.77 12.3086C113.271 11.7967 112.676 11.4065 111.985 11.1377C111.307 10.8562 110.565 10.7154 109.758 10.7154C108.952 10.7154 108.204 10.8562 107.513 11.1377C106.822 11.4065 106.22 11.7967 105.708 12.3086C105.209 12.8077 104.813 13.3963 104.518 14.0745C104.237 14.7399 104.096 15.4757 104.096 16.2819C104.096 17.0753 104.237 17.8111 104.518 18.4893C104.813 19.1675 105.209 19.7625 105.708 20.2744C106.22 20.7734 106.822 21.1637 107.513 21.4452C108.204 21.714 108.952 21.8483 109.758 21.8483ZM119.987 23V9.56377H125.016C126.154 9.56377 127.133 9.74932 127.952 10.1204C128.771 10.4787 129.398 11.0034 129.833 11.6944C130.281 12.3726 130.505 13.198 130.505 14.1705C130.505 15.1174 130.281 15.9364 129.833 16.6274C129.398 17.3056 128.771 17.8303 127.952 18.2013C127.133 18.5596 126.154 18.7388 125.016 18.7388H120.774L121.407 18.0862V23H119.987ZM129.162 23L125.707 18.1246H127.242L130.716 23H129.162ZM121.407 18.2013L120.774 17.5295H124.977C126.321 17.5295 127.338 17.2352 128.029 16.6466C128.733 16.0579 129.085 15.2326 129.085 14.1705C129.085 13.0956 128.733 12.2638 128.029 11.6752C127.338 11.0865 126.321 10.7922 124.977 10.7922H120.774L121.407 10.1204V18.2013ZM133.858 23V9.56377H135.278V21.7715H142.802V23H133.858ZM145.161 23V9.56377H150.631C152.064 9.56377 153.319 9.85169 154.393 10.4275C155.481 10.9906 156.326 11.7775 156.927 12.7885C157.529 13.7994 157.829 14.9639 157.829 16.2819C157.829 17.5999 157.529 18.7644 156.927 19.7753C156.326 20.7862 155.481 21.5796 154.393 22.1554C153.319 22.7185 152.064 23 150.631 23H145.161ZM146.581 21.7715H150.554C151.745 21.7715 152.775 21.5412 153.645 21.0805C154.528 20.6071 155.212 19.9609 155.699 19.1419C156.185 18.3101 156.428 17.3568 156.428 16.2819C156.428 15.1942 156.185 14.2409 155.699 13.4219C155.212 12.6029 154.528 11.9631 153.645 11.5024C152.775 11.029 151.745 10.7922 150.554 10.7922H146.581V21.7715Z" fill="white"/>
</svg>
