<svg width="45" height="45" viewBox="0 0 45 45" fill="none" xmlns="http://www.w3.org/2000/svg">
<g clip-path="url(#clip0_11_1133)">
<path d="M44.4499 41.799L31.6532 29.0022C34.1319 25.9404 35.6244 22.0498 35.6244 17.8124C35.6244 7.9912 27.6332 0 17.812 0C7.99087 0 -0.000244141 7.99111 -0.000244141 17.8123C-0.000244141 27.6334 7.99096 35.6246 17.8121 35.6246C22.0495 35.6246 25.9402 34.1322 29.002 31.6534L41.7987 44.4502C42.1643 44.8158 42.6443 44.9996 43.1244 44.9996C43.6044 44.9996 44.0844 44.8158 44.45 44.4502C45.1831 43.7171 45.1831 42.5321 44.4499 41.799ZM17.8121 31.8746C10.0572 31.8746 3.74975 25.5672 3.74975 17.8123C3.74975 10.0573 10.0572 3.7499 17.8121 3.7499C25.5671 3.7499 31.8745 10.0573 31.8745 17.8123C31.8745 25.5672 25.567 31.8746 17.8121 31.8746Z" fill="white"/>
</g>
<defs>
<clipPath id="clip0_11_1133">
<rect width="45" height="45" fill="white"/>
</clipPath>
</defs>
</svg>
