<svg width="20" height="20" viewBox="0 0 20 20" fill="none" xmlns="http://www.w3.org/2000/svg">
<path d="M18.879 17.9768L13.5342 12.632C14.5695 11.3531 15.1928 9.72813 15.1928 7.95828C15.1928 3.85628 11.8551 0.518585 7.75314 0.518585C3.65113 0.518585 0.313477 3.85624 0.313477 7.95825C0.313477 12.0603 3.65117 15.3979 7.75318 15.3979C9.52303 15.3979 11.148 14.7746 12.4269 13.7393L17.7717 19.0841C17.9244 19.2368 18.1249 19.3136 18.3254 19.3136C18.5259 19.3136 18.7263 19.2368 18.879 19.0841C19.1852 18.7779 19.1852 18.283 18.879 17.9768ZM7.75318 13.8317C4.51416 13.8317 1.87974 11.1973 1.87974 7.95825C1.87974 4.71923 4.51416 2.08481 7.75318 2.08481C10.9922 2.08481 13.6266 4.71923 13.6266 7.95825C13.6266 11.1973 10.9922 13.8317 7.75318 13.8317Z" fill="white"/>
</svg>
