<svg width="38" height="37" viewBox="0 0 38 37" fill="none" xmlns="http://www.w3.org/2000/svg">
<circle cx="18.6968" cy="18.5" r="18.5" fill="white"/>
<g clip-path="url(#clip0_5_877)">
<path d="M27.7278 12.5197C27.0387 12.822 26.3044 13.0224 25.5388 13.1197C26.3264 12.6494 26.9275 11.9105 27.2101 11.0199C26.4758 11.4577 25.6651 11.7669 24.8011 11.9395C24.1039 11.1971 23.1102 10.7373 22.0261 10.7373C19.9229 10.7373 18.2296 12.4445 18.2296 14.5373C18.2296 14.8384 18.2551 15.1279 18.3176 15.4036C15.1593 15.2495 12.3646 13.7358 10.4872 11.4299C10.1595 11.9986 9.96721 12.6494 9.96721 13.3501C9.96721 14.6658 10.6447 15.8321 11.6547 16.5073C11.0443 16.4957 10.4455 16.3185 9.93825 16.0394C9.93825 16.051 9.93825 16.0661 9.93825 16.0811C9.93825 17.9272 11.2551 19.4607 12.9819 19.8139C12.6727 19.8985 12.3357 19.939 11.9859 19.939C11.7427 19.939 11.4972 19.9251 11.2667 19.8741C11.7589 21.3786 13.1557 22.4847 14.8165 22.5206C13.524 23.5316 11.8828 24.1408 10.1062 24.1408C9.79464 24.1408 9.49583 24.1269 9.19702 24.0887C10.8798 25.1739 12.8742 25.7936 15.0249 25.7936C22.0157 25.7936 25.8377 20.0027 25.8377 14.9832C25.8377 14.8152 25.8319 14.6531 25.8238 14.4921C26.5777 13.957 27.2112 13.2888 27.7278 12.5197Z" fill="#574E4E"/>
</g>
<defs>
<clipPath id="clip0_5_877">
<rect width="18.5308" height="18.5308" fill="white" transform="translate(9.19678 9)"/>
</clipPath>
</defs>
</svg>
