<svg width="38" height="37" viewBox="0 0 38 37" fill="none" xmlns="http://www.w3.org/2000/svg">
<circle cx="18.6968" cy="18.5" r="18.5" fill="white"/>
<g clip-path="url(#clip0_5_885)">
<path d="M10.5139 18.6639L14.6544 20.2093L16.257 25.3633C16.3596 25.6934 16.7632 25.8154 17.0311 25.5963L19.3391 23.7148C19.581 23.5177 19.9256 23.5079 20.1784 23.6914L24.3412 26.7137C24.6278 26.922 25.0338 26.7649 25.1057 26.4186L28.1552 11.7503C28.2336 11.372 27.8619 11.0564 27.5017 11.1957L10.5091 17.7509C10.0897 17.9126 10.0934 18.5063 10.5139 18.6639ZM15.9987 19.3867L24.0908 14.4028C24.2362 14.3135 24.3858 14.5101 24.2609 14.6259L17.5827 20.8337C17.3479 21.0522 17.1965 21.3446 17.1536 21.662L16.9261 23.3479C16.896 23.573 16.5798 23.5953 16.5177 23.3775L15.6428 20.3033C15.5426 19.9526 15.6886 19.5781 15.9987 19.3867Z" fill="#574E4E"/>
</g>
<defs>
<clipPath id="clip0_5_885">
<rect width="17.9692" height="17.9692" fill="white" transform="translate(10.1968 10)"/>
</clipPath>
</defs>
</svg>
